HIERARCHY
ROOT Hips
{
	OFFSET 0.000000 100.481300 0.000000
	CHANNELS 6 Xposition Yposition Zposition Xrotation Yrotation Zrotation 
	JOINT Spine
	{
		OFFSET -0.279200 12.230698 -2.892100
		CHANNELS 3 Xrotation Yrotation Zrotation
		JOINT Spine1
		{
			OFFSET -0.232667 10.192268 -1.242267
			CHANNELS 3 Xrotation Yrotation Zrotation
			JOINT Spine1_split
			{
				OFFSET -0.232667 10.192268 -1.242267
				CHANNELS 3 Xrotation Yrotation Zrotation
				JOINT Spine2
				{
					OFFSET -0.232667 10.192268 -1.242267
					CHANNELS 3 Xrotation Yrotation Zrotation
					JOINT Neck
					{
						OFFSET -0.418800 17.814194 8.416900
						CHANNELS 3 Xrotation Yrotation Zrotation
						JOINT Head
						{
							OFFSET 0.000000 7.031097 3.806800
							CHANNELS 3 Xrotation Yrotation Zrotation
							JOINT HeadTop_End
							{
								OFFSET 0.000000 24.646606 12.978600
								CHANNELS 3 Xrotation Yrotation Zrotation
								End Site
								{
									OFFSET 0.000000 0.000000 0.000000
								}
							}
						}
					}
					JOINT LeftShoulder
					{
						OFFSET 8.476499 7.247704 -3.868750
						CHANNELS 3 Xrotation Yrotation Zrotation
						JOINT LeftShoulder_split
						{
							OFFSET 8.476499 7.247704 -3.868750
							CHANNELS 3 Xrotation Yrotation Zrotation
							JOINT LeftArm
							{
								OFFSET 9.308998 -2.777710 0.208600
								CHANNELS 3 Xrotation Yrotation Zrotation
								JOINT LeftForeArm
								{
									OFFSET 29.972298 0.000000 0.000000
									CHANNELS 3 Xrotation Yrotation Zrotation
									JOINT LeftHand
									{
										OFFSET 26.026505 0.000000 0.000000
										CHANNELS 3 Xrotation Yrotation Zrotation
										JOINT LeftHandThumb1
										{
											OFFSET 12.240501 -7.147949 9.207150
											CHANNELS 3 Xrotation Yrotation Zrotation
											JOINT LeftHandThumb2
											{
												OFFSET 4.138618 -2.389435 2.389433
												CHANNELS 3 Xrotation Yrotation Zrotation
												JOINT LeftHandThumb3
												{
													OFFSET 2.726913 -1.574387 1.574386
													CHANNELS 3 Xrotation Yrotation Zrotation
													JOINT LeftHandThumb4
													{
														OFFSET 3.941010 -2.275345 2.275342
														CHANNELS 3 Xrotation Yrotation Zrotation
														End Site
														{
															OFFSET 0.000000 0.000000 0.000000
														}
													}
												}
											}
										}
										JOINT LeftHandIndex1
										{
											OFFSET 24.424698 -1.985611 5.953459
											CHANNELS 3 Xrotation Yrotation Zrotation
											JOINT LeftHandIndex2
											{
												OFFSET 6.426697 0.000000 0.000000
												CHANNELS 3 Xrotation Yrotation Zrotation
												JOINT LeftHandIndex3
												{
													OFFSET 5.337898 0.000000 0.000000
													CHANNELS 3 Xrotation Yrotation Zrotation
													JOINT LeftHandIndex4
													{
														OFFSET 4.409401 0.000000 0.000000
														CHANNELS 3 Xrotation Yrotation Zrotation
														End Site
														{
															OFFSET 0.000000 0.000000 0.000000
														}
													}
												}
											}
										}
										JOINT LeftHandMiddle1
										{
											OFFSET 23.810104 0.000000 0.000000
											CHANNELS 3 Xrotation Yrotation Zrotation
											JOINT LeftHandMiddle2
											{
												OFFSET 7.176498 0.000000 0.000000
												CHANNELS 3 Xrotation Yrotation Zrotation
												JOINT LeftHandMiddle3
												{
													OFFSET 6.774902 0.000000 0.000000
													CHANNELS 3 Xrotation Yrotation Zrotation
													JOINT LeftHandMiddle4
													{
														OFFSET 5.403328 0.000000 0.000000
														CHANNELS 3 Xrotation Yrotation Zrotation
														End Site
														{
															OFFSET 0.000000 0.000000 0.000000
														}
													}
												}
											}
										}
										JOINT LeftHandRing1
										{
											OFFSET 22.908401 -0.839279 -6.020567
											CHANNELS 3 Xrotation Yrotation Zrotation
											JOINT LeftHandRing2
											{
												OFFSET 6.337502 0.000000 0.000000
												CHANNELS 3 Xrotation Yrotation Zrotation
												JOINT LeftHandRing3
												{
													OFFSET 5.779297 0.000000 0.000000
													CHANNELS 3 Xrotation Yrotation Zrotation
													JOINT LeftHandRing4
													{
														OFFSET 4.965698 0.000000 0.000000
														CHANNELS 3 Xrotation Yrotation Zrotation
														End Site
														{
															OFFSET 0.000000 0.000000 0.000000
														}
													}
												}
											}
										}
										JOINT LeftHandPinky1
										{
											OFFSET 20.037003 -1.530319 -10.950146
											CHANNELS 3 Xrotation Yrotation Zrotation
											JOINT LeftHandPinky2
											{
												OFFSET 5.254700 0.000000 0.000000
												CHANNELS 3 Xrotation Yrotation Zrotation
												JOINT LeftHandPinky3
												{
													OFFSET 4.810204 0.000000 0.000000
													CHANNELS 3 Xrotation Yrotation Zrotation
													JOINT LeftHandPinky4
													{
														OFFSET 3.647202 0.000000 0.000000
														CHANNELS 3 Xrotation Yrotation Zrotation
														End Site
														{
															OFFSET 0.000000 0.000000 0.000000
														}
													}
												}
											}
										}
									}
								}
							}
						}
					}
					JOINT RightShoulder
					{
						OFFSET -7.570500 7.247704 -3.868750
						CHANNELS 3 Xrotation Yrotation Zrotation
						JOINT RightShoulder_split
						{
							OFFSET -7.570500 7.247704 -3.868750
							CHANNELS 3 Xrotation Yrotation Zrotation
							JOINT RightArm
							{
								OFFSET -9.308998 -2.777710 0.208500
								CHANNELS 3 Xrotation Yrotation Zrotation
								JOINT RightForeArm
								{
									OFFSET -29.972300 0.000000 0.000000
									CHANNELS 3 Xrotation Yrotation Zrotation
									JOINT RightHand
									{
										OFFSET -26.026505 0.000000 0.000000
										CHANNELS 3 Xrotation Yrotation Zrotation
										JOINT RightHandThumb1
										{
											OFFSET -12.240601 -7.148026 9.207092
											CHANNELS 3 Xrotation Yrotation Zrotation
											JOINT RightHandThumb2
											{
												OFFSET -4.138618 -2.389435 2.389433
												CHANNELS 3 Xrotation Yrotation Zrotation
												JOINT RightHandThumb3
												{
													OFFSET -2.726974 -1.574417 1.574421
													CHANNELS 3 Xrotation Yrotation Zrotation
													JOINT RightHandThumb4
													{
														OFFSET -3.941010 -2.275345 2.275343
														CHANNELS 3 Xrotation Yrotation Zrotation
														End Site
														{
															OFFSET 0.000000 0.000000 0.000000
														}
													}
												}
											}
										}
										JOINT RightHandIndex1
										{
											OFFSET -24.424698 -1.985657 5.953444
											CHANNELS 3 Xrotation Yrotation Zrotation
											JOINT RightHandIndex2
											{
												OFFSET -6.426697 0.000000 0.000000
												CHANNELS 3 Xrotation Yrotation Zrotation
												JOINT RightHandIndex3
												{
													OFFSET -5.337898 0.000000 0.000000
													CHANNELS 3 Xrotation Yrotation Zrotation
													JOINT RightHandIndex4
													{
														OFFSET -4.409401 0.000000 0.000000
														CHANNELS 3 Xrotation Yrotation Zrotation
														End Site
														{
															OFFSET 0.000000 0.000000 0.000000
														}
													}
												}
											}
										}
										JOINT RightHandMiddle1
										{
											OFFSET -23.810097 0.000000 0.000000
											CHANNELS 3 Xrotation Yrotation Zrotation
											JOINT RightHandMiddle2
											{
												OFFSET -7.176498 0.000000 0.000000
												CHANNELS 3 Xrotation Yrotation Zrotation
												JOINT RightHandMiddle3
												{
													OFFSET -6.774902 0.000000 0.000000
													CHANNELS 3 Xrotation Yrotation Zrotation
													JOINT RightHandMiddle4
													{
														OFFSET -5.403328 0.000000 0.000000
														CHANNELS 3 Xrotation Yrotation Zrotation
														End Site
														{
															OFFSET 0.000000 0.000000 0.000000
														}
													}
												}
											}
										}
										JOINT RightHandRing1
										{
											OFFSET -22.908302 -0.839325 -6.020576
											CHANNELS 3 Xrotation Yrotation Zrotation
											JOINT RightHandRing2
											{
												OFFSET -6.337502 0.000000 0.000000
												CHANNELS 3 Xrotation Yrotation Zrotation
												JOINT RightHandRing3
												{
													OFFSET -5.779297 0.000000 0.000000
													CHANNELS 3 Xrotation Yrotation Zrotation
													JOINT RightHandRing4
													{
														OFFSET -4.965698 0.000000 0.000000
														CHANNELS 3 Xrotation Yrotation Zrotation
														End Site
														{
															OFFSET 0.000000 0.000000 0.000000
														}
													}
												}
											}
										}
										JOINT RightHandPinky1
										{
											OFFSET -20.037003 -1.530334 -10.950259
											CHANNELS 3 Xrotation Yrotation Zrotation
											JOINT RightHandPinky2
											{
												OFFSET -5.254700 0.000000 0.000000
												CHANNELS 3 Xrotation Yrotation Zrotation
												JOINT RightHandPinky3
												{
													OFFSET -4.810204 0.000000 0.000000
													CHANNELS 3 Xrotation Yrotation Zrotation
													JOINT RightHandPinky4
													{
														OFFSET -3.647202 0.000000 0.000000
														CHANNELS 3 Xrotation Yrotation Zrotation
														End Site
														{
															OFFSET 0.000000 0.000000 0.000000
														}
													}
												}
											}
										}
									}
								}
							}
						}
					}
				}
			}
		}
	}
	JOINT LeftUpLeg
	{
		OFFSET 15.427100 -6.655098 0.678600
		CHANNELS 3 Xrotation Yrotation Zrotation
		JOINT LeftLeg
		{
			OFFSET 4.081073 -39.591068 13.024000
			CHANNELS 3 Xrotation Yrotation Zrotation
			JOINT LeftFoot
			{
				OFFSET -4.081074 -37.707932 -15.979700
				CHANNELS 3 Xrotation Yrotation Zrotation
				JOINT LeftToeBase
				{
					OFFSET 5.346399 -15.068900 20.645000
					CHANNELS 3 Xrotation Yrotation Zrotation
					JOINT LeftToe_End
					{
						OFFSET 2.754700 0.931300 11.300900
						CHANNELS 3 Xrotation Yrotation Zrotation
						End Site
						{
							OFFSET 0.000000 0.000000 0.000000
						}
					}
				}
			}
		}
	}
	JOINT RightUpLeg
	{
		OFFSET -15.569500 -6.655098 0.678600
		CHANNELS 3 Xrotation Yrotation Zrotation
		JOINT RightLeg
		{
			OFFSET -4.081825 -39.591045 13.023800
			CHANNELS 3 Xrotation Yrotation Zrotation
			JOINT RightFoot
			{
				OFFSET 4.081824 -37.707954 -15.979600
				CHANNELS 3 Xrotation Yrotation Zrotation
				JOINT RightToeBase
				{
					OFFSET -5.346400 -15.068900 20.645000
					CHANNELS 3 Xrotation Yrotation Zrotation
					JOINT RightToe_End
					{
						OFFSET -2.754700 0.931300 11.300900
						CHANNELS 3 Xrotation Yrotation Zrotation
						End Site
						{
							OFFSET 0.000000 0.000000 0.000000
						}
					}
				}
			}
		}
	}
}
MOTION
Frames: 4
Frame Time: 0.016667
-112.191727 71.047142 -6.978898 5.543543 -58.280071 4.707612 16.003813 0.906831 -6.181963 15.662368 2.194515 -5.768868 0.000000 0.000000 0.000000 15.861041 2.321202 -5.742674 -14.884358 23.425674 6.721293 -15.964688 21.324460 2.083142 0.000000 0.000000 0.000001 -0.592726 -13.563747 6.823820 0.000000 0.000000 0.000000 -37.598409 23.788779 -23.345655 0.137281 -73.842432 0.102708 21.507006 -12.727037 33.551826 -0.176236 -1.991286 10.659552 -0.979206 11.076300 -5.731059 -1.819322 -7.916933 -2.018627 -0.000001 0.000002 -0.000001 13.247448 -0.979867 21.207942 -0.180149 0.297650 -20.577345 -0.128604 0.309418 -21.728075 0.000000 0.000001 -0.000001 8.602431 -0.416370 9.612750 0.200401 0.617484 -19.373458 0.419219 0.140628 -33.828889 -0.000001 -0.000001 -0.000000 6.158754 3.074139 -5.684667 0.025717 0.262721 -19.597360 0.393967 0.759832 -31.612246 -0.000001 -0.000002 0.000001 -5.613889 7.660064 -3.352579 0.187024 0.237990 -36.060206 0.214715 0.218624 -35.758574 -0.000003 0.000000 -0.000003 -2.118368 13.247535 13.753732 0.000000 0.000000 0.000000 -38.399064 -0.958080 39.774189 151.512474 110.498124 -153.014337 -21.986345 0.700010 -2.641024 1.093327 1.408798 -13.987316 3.986664 -25.048809 0.080544 4.270651 -21.254159 -11.788134 0.000000 -0.000002 0.000003 19.464658 11.168278 -4.447438 -0.110035 -0.329378 26.935961 -0.071907 -0.279450 32.156934 -0.000000 -0.000002 0.000000 4.244760 2.329703 4.090252 0.378200 -0.490156 35.790642 0.497417 0.132916 47.944790 0.000002 0.000000 0.000000 -7.005488 -10.749408 14.617044 0.115643 -0.151332 35.056001 0.483005 -0.512610 42.165401 -0.000002 -0.000000 0.000001 -19.412784 -20.240275 14.888257 0.269426 -0.116275 45.744816 0.295698 -0.072176 45.371912 0.000003 0.000001 -0.000001 -46.600622 -26.109257 23.585333 40.799285 -6.998579 -10.865432 3.988041 2.081095 -24.738223 -0.406695 -0.846554 0.565081 -0.000000 0.000000 -0.000000 -45.023285 0.573813 -16.496589 81.618541 10.053762 -5.723729 -19.562668 -5.293263 12.714813 5.244127 1.805521 -0.342846 0.000002 0.000000 -0.000000 
-113.703903 71.252205 -6.561208 4.071752 -58.619265 3.259716 15.925696 0.804907 -5.974597 15.476317 1.900082 -5.988024 0.000000 0.000000 0.000000 15.663096 2.020914 -5.953945 -15.640624 24.355947 6.043406 -15.299793 22.041526 1.948351 0.000002 0.000001 0.000001 -1.370432 -14.343349 3.032931 0.000000 0.000000 0.000000 -38.279628 22.614271 -23.089907 0.142064 -75.187829 0.107945 21.180318 -12.561895 30.726350 -0.172644 -1.962142 10.669725 -0.991720 11.049007 -5.744195 -1.829329 -7.945218 -2.034904 0.000001 -0.000000 -0.000001 13.246168 -0.979979 21.241420 -0.180225 0.297652 -20.543875 -0.128572 0.309589 -21.694554 -0.000000 0.000001 0.000001 8.603001 -0.416586 9.646226 0.200010 0.617172 -19.339949 0.418473 0.140935 -33.795397 -0.000000 -0.000003 0.000004 6.160627 3.072701 -5.651285 0.025768 0.262509 -19.563883 0.393185 0.760107 -31.578765 0.000001 -0.000000 -0.000000 -5.609814 7.658650 -3.319398 0.186932 0.238061 -36.026697 0.214596 0.218506 -35.725127 -0.000004 0.000000 -0.000002 -2.145712 13.116404 13.287858 0.000000 0.000000 0.000000 -38.908511 -2.796936 41.271138 150.551494 108.832685 -151.840897 -18.983476 0.814727 -0.184478 1.100665 1.316006 -14.020261 4.097967 -25.391042 -0.046746 4.301333 -21.611222 -11.948331 0.000000 -0.000002 -0.000000 19.480347 11.186124 -4.051276 -0.109636 -0.329619 27.333171 -0.071251 -0.279294 32.554095 -0.000001 -0.000002 0.000000 4.235025 2.325056 4.487347 0.380032 -0.491318 36.187818 0.499222 0.132013 48.341893 -0.000000 0.000001 0.000001 -7.026285 -10.770435 15.013169 0.116077 -0.154260 35.453173 0.483591 -0.513350 42.562488 -0.000001 0.000002 -0.000002 -19.446527 -20.272550 15.280820 0.270965 -0.117531 46.141924 0.297340 -0.073148 45.769077 0.000001 0.000001 -0.000001 -44.401349 -25.630411 24.712564 41.402278 -7.767054 -11.190748 2.055962 2.422979 -24.407227 -0.404251 -0.828663 0.573217 -0.000000 0.000002 0.000000 -44.387726 1.818681 -18.072187 78.334907 7.808815 -5.520219 -21.956220 -7.227407 11.711328 14.738380 4.749782 4.728169 0.000000 0.000001 0.000001 
-115.109764 71.579346 -6.138362 2.645031 -58.855959 1.874586 15.843269 0.717887 -5.718362 15.281061 1.631120 -6.174519 0.000000 0.000000 0.000000 15.452415 1.743123 -6.133696 -16.471742 25.128983 5.368878 -14.460299 22.658893 1.648733 -0.000000 0.000000 -0.000001 -2.134505 -14.889215 -0.321571 0.000000 0.000000 0.000000 -38.090838 21.313433 -23.421111 0.143801 -75.859646 0.109834 21.642696 -12.430040 28.334580 -0.171280 -1.951941 10.673357 -0.995530 11.040108 -5.747496 -1.832640 -7.954323 -2.039775 0.000003 -0.000001 0.000001 13.244946 -0.980203 21.252187 -0.180231 0.297739 -20.533243 -0.128595 0.309845 -21.683865 0.000000 -0.000001 -0.000001 8.603641 -0.416699 9.656907 0.199606 0.616961 -19.329309 0.417766 0.141414 -33.784708 -0.000001 -0.000002 -0.000001 6.162582 3.070938 -5.640790 0.025943 0.262502 -19.553191 0.392215 0.760639 -31.568110 0.000001 -0.000003 -0.000000 -5.608275 7.656866 -3.309144 0.186898 0.238176 -36.015984 0.214524 0.218484 -35.714431 -0.000001 -0.000000 -0.000001 -2.213425 12.977063 12.820906 0.000000 0.000000 0.000000 -38.520300 -3.822272 41.682288 149.720315 107.278086 -150.818391 -17.231140 2.319440 1.639100 1.099623 1.332544 -14.014480 4.157003 -25.569865 -0.112247 4.317108 -21.797719 -12.032352 0.000002 -0.000001 0.000003 19.490570 11.198349 -3.844288 -0.109442 -0.329755 27.540784 -0.070970 -0.279278 32.761726 -0.000002 0.000000 0.000000 4.228751 2.322539 4.694891 0.381002 -0.491864 36.395380 0.499953 0.131541 48.549487 0.000001 -0.000000 0.000002 -7.040166 -10.784477 15.220073 0.116270 -0.155914 35.660793 0.484296 -0.513784 42.770037 0.000001 -0.000002 0.000002 -19.469251 -20.294731 15.485340 0.271728 -0.118165 46.349551 0.298130 -0.073689 45.976650 0.000002 0.000003 -0.000003 -42.302182 -24.876603 25.661308 41.675390 -8.512215 -11.420952 0.399804 2.658909 -23.943633 -0.402259 -0.801828 0.580579 -0.000000 0.000000 -0.000000 -43.537046 2.519755 -19.454906 74.339909 5.814436 -5.565180 -22.910809 -8.714737 12.130535 17.704127 6.559217 10.157952 -0.000000 0.000001 0.000000 
-116.460297 71.884155 -5.686483 1.289560 -59.003436 0.564905 15.756271 0.644200 -5.412440 15.077528 1.383987 -6.329463 0.000000 0.000000 0.000000 15.230647 1.483818 -6.284075 -17.484613 25.776253 4.725520 -13.493816 23.182099 1.276608 0.000001 -0.000000 -0.000000 -2.761760 -14.973161 -2.599929 0.000000 0.000000 0.000000 -36.570646 20.101445 -24.497416 0.136188 -75.533559 0.102030 22.628495 -12.613204 26.528086 -0.175610 -1.983297 10.662195 -0.950363 11.151372 -5.698975 -1.794636 -7.840055 -1.978397 0.000000 0.000002 0.000001 13.243765 -0.980686 21.119406 -0.180064 0.297937 -20.665904 -0.128251 0.310106 -21.816625 0.000001 -0.000001 -0.000000 8.602298 -0.415809 9.524141 0.199708 0.617409 -19.462040 0.417667 0.142342 -33.917510 -0.000001 -0.000003 0.000004 6.163241 3.070132 -5.773606 0.026164 0.263573 -19.685920 0.392107 0.761512 -31.700875 0.000001 0.000000 0.000001 -5.603430 7.655370 -3.442083 0.187325 0.238823 -36.148756 0.215086 0.218876 -35.847196 -0.000000 0.000002 -0.000001 -2.248344 12.848359 12.353130 0.000000 0.000000 0.000000 -38.156264 -4.801574 41.733234 148.594180 105.662644 -149.509399 -15.782211 4.369585 3.355031 1.092518 1.427164 -13.981076 4.180322 -25.639272 -0.137690 4.324351 -21.870167 -12.064780 -0.000001 -0.000001 -0.000001 19.497127 11.206776 -3.763934 -0.109369 -0.329816 27.621572 -0.070892 -0.279390 32.842456 -0.000000 0.000002 -0.000000 4.225237 2.321628 4.775585 0.381449 -0.492052 36.476127 0.500103 0.131358 48.630291 0.000001 -0.000002 -0.000001 -7.049312 -10.793707 15.300471 0.116323 -0.156718 35.741547 0.484744 -0.513851 42.850869 -0.000002 -0.000001 0.000000 -19.484424 -20.310013 15.564201 0.272093 -0.118415 46.430280 0.298314 -0.073889 46.057407 0.000003 -0.000000 0.000000 -40.435027 -23.956322 26.481946 41.894003 -9.349136 -11.638854 -1.134473 2.843670 -23.349999 -0.400149 -0.770554 0.588767 0.000000 -0.000000 -0.000000 -42.612806 2.556850 -20.490400 69.040030 5.284532 -5.793781 -20.469814 -8.542730 14.857635 15.199010 4.665218 7.915633 0.000001 0.000001 0.000001 
